# xmcd
#
# Track frame offsets: 
#        150
#        20440
#        39937
#        58110
#        76167
#        101647
#        119117
#        151792
#        169417
#        187292
#        208159
#        224945
#
# Disc length: 3267 seconds
#
# Revision: 3
# Processed by: cddbd v1.5.2PL0 Copyright (c) Steve Scherf et al.
# Submitted via: ExactAudioCopy v0.99pb5
#
DISCID=b40cc10c
DTITLE=Asleep At The Wheel - Live
DYEAR=1997
DGENRE=Country
TTITLE0=Ain't Nobody Here But Us Chickens
TTITLE1=Miles and Miles of Texas
TTITLE2=Roly Poly
TTITLE3=Ida Red
TTITLE4=My Baby Thinks She's A Train
TTITLE5=The Letter That Johnny Walker Read
TTITLE6=God Bless The Child
TTITLE7=Fat Boy Rag
TTITLE8=Cherokee Boogie
TTITLE9=Hot Rod Lincoln
TTITLE10=Boogie Back To Texas
TTITLE11=House Of Blue Lights
EXTD=YEAR: 1997
EXTT0=
EXTT1=
EXTT2=
EXTT3=
EXTT4=
EXTT5=
EXTT6=
EXTT7=
EXTT8=
EXTT9=
EXTT10=
EXTT11=
PLAYORDER=
